<svg xmlns="http://www.w3.org/2000/svg" xmlns:xlink="http://www.w3.org/1999/xlink" viewBox="0 0 1780.34 1533.19"><defs><style>.cls-1{fill:url(#radial-gradient);}.cls-2{fill:url(#radial-gradient-2);}.cls-3{fill:url(#radial-gradient-3);}.cls-4{fill:url(#radial-gradient-4);}.cls-5{fill:none;}.cls-6{isolation:isolate;}.cls-7{fill:url(#radial-gradient-5);}.cls-8{opacity:0.1;}.cls-9{clip-path:url(#clip-path);}.cls-10{fill:#d2d2d2;}.cls-10,.cls-100,.cls-101,.cls-102,.cls-103,.cls-104,.cls-105,.cls-106,.cls-107,.cls-108,.cls-109,.cls-11,.cls-110,.cls-111,.cls-112,.cls-12,.cls-13,.cls-14,.cls-15,.cls-16,.cls-17,.cls-19,.cls-20,.cls-21,.cls-22,.cls-23,.cls-24,.cls-25,.cls-26,.cls-27,.cls-28,.cls-29,.cls-30,.cls-31,.cls-32,.cls-33,.cls-34,.cls-35,.cls-36,.cls-37,.cls-38,.cls-39,.cls-40,.cls-41,.cls-42,.cls-43,.cls-44,.cls-45,.cls-46,.cls-47,.cls-48,.cls-49,.cls-50,.cls-51,.cls-52,.cls-53,.cls-54,.cls-55,.cls-56,.cls-57,.cls-58,.cls-59,.cls-60,.cls-61,.cls-62,.cls-63,.cls-64,.cls-65,.cls-66,.cls-67,.cls-68,.cls-69,.cls-70,.cls-71,.cls-72,.cls-73,.cls-74,.cls-75,.cls-76,.cls-77,.cls-78,.cls-79,.cls-80,.cls-81,.cls-82,.cls-83,.cls-84,.cls-85,.cls-86,.cls-87,.cls-88,.cls-89,.cls-90,.cls-91,.cls-92,.cls-93,.cls-94,.cls-95,.cls-96,.cls-97,.cls-98,.cls-99{fill-rule:evenodd;}.cls-11{fill:#5b5b5b;}.cls-12{fill:#4d4d4d;}.cls-13{fill:#797979;}.cls-14{fill:#a9a8a8;}.cls-15{fill:#a8a7a8;}.cls-16{fill:#828282;}.cls-17{fill:#505050;}.cls-18{mix-blend-mode:soft-light;}.cls-19{fill:url(#linear-gradient);}.cls-20{fill:url(#linear-gradient-2);}.cls-21{fill:url(#linear-gradient-3);}.cls-22{fill:url(#linear-gradient-4);}.cls-23{fill:url(#linear-gradient-5);}.cls-24{fill:url(#linear-gradient-6);}.cls-25{fill:url(#linear-gradient-7);}.cls-26{fill:url(#linear-gradient-8);}.cls-27{fill:url(#linear-gradient-9);}.cls-28{fill:url(#linear-gradient-10);}.cls-29{fill:url(#linear-gradient-11);}.cls-30{fill:url(#linear-gradient-12);}.cls-31{fill:url(#linear-gradient-13);}.cls-32{fill:url(#linear-gradient-14);}.cls-33{fill:url(#linear-gradient-15);}.cls-34{fill:url(#linear-gradient-16);}.cls-35{fill:#7c7b7b;}.cls-36{fill:url(#linear-gradient-17);}.cls-37{fill:url(#linear-gradient-18);}.cls-38{fill:url(#linear-gradient-19);}.cls-39{fill:url(#linear-gradient-20);}.cls-40{fill:url(#linear-gradient-21);}.cls-41{fill:url(#linear-gradient-22);}.cls-42{fill:url(#linear-gradient-23);}.cls-43{fill:url(#linear-gradient-24);}.cls-44{fill:url(#linear-gradient-25);}.cls-45{fill:url(#linear-gradient-26);}.cls-46{fill:url(#linear-gradient-27);}.cls-47{fill:url(#linear-gradient-28);}.cls-48{fill:url(#linear-gradient-29);}.cls-49{fill:url(#linear-gradient-30);}.cls-50{fill:url(#linear-gradient-31);}.cls-51{fill:url(#linear-gradient-32);}.cls-52{fill:url(#linear-gradient-33);}.cls-53{fill:url(#linear-gradient-34);}.cls-54{fill:url(#linear-gradient-35);}.cls-55{fill:url(#linear-gradient-36);}.cls-56{fill:url(#linear-gradient-37);}.cls-57{fill:url(#linear-gradient-38);}.cls-58{fill:url(#linear-gradient-39);}.cls-59{fill:url(#linear-gradient-40);}.cls-60{fill:url(#linear-gradient-41);}.cls-61{fill:url(#linear-gradient-42);}.cls-62{fill:url(#linear-gradient-43);}.cls-63{fill:url(#linear-gradient-44);}.cls-64{fill:url(#linear-gradient-45);}.cls-65{fill:url(#linear-gradient-46);}.cls-66{fill:url(#linear-gradient-47);}.cls-67{fill:url(#linear-gradient-48);}.cls-68{fill:url(#linear-gradient-49);}.cls-69{fill:url(#linear-gradient-50);}.cls-70{fill:url(#linear-gradient-51);}.cls-71{fill:url(#linear-gradient-52);}.cls-72{fill:url(#linear-gradient-53);}.cls-73{fill:url(#linear-gradient-54);}.cls-74{fill:url(#linear-gradient-55);}.cls-75{fill:url(#linear-gradient-56);}.cls-76{fill:url(#linear-gradient-57);}.cls-77{fill:url(#linear-gradient-58);}.cls-78{fill:url(#linear-gradient-59);}.cls-79{fill:url(#linear-gradient-60);}.cls-80{fill:url(#linear-gradient-61);}.cls-81{fill:url(#linear-gradient-62);}.cls-82{fill:url(#linear-gradient-63);}.cls-83{fill:url(#linear-gradient-64);}.cls-84{fill:url(#linear-gradient-65);}.cls-85{fill:url(#linear-gradient-66);}.cls-86{fill:url(#linear-gradient-67);}.cls-87{fill:url(#linear-gradient-68);}.cls-88{fill:url(#linear-gradient-69);}.cls-89{fill:url(#linear-gradient-70);}.cls-90{fill:url(#linear-gradient-71);}.cls-91{fill:url(#linear-gradient-72);}.cls-92{fill:url(#linear-gradient-73);}.cls-93{fill:url(#linear-gradient-74);}.cls-94{fill:url(#linear-gradient-75);}.cls-95{fill:url(#linear-gradient-76);}.cls-96{fill:url(#linear-gradient-77);}.cls-97{fill:url(#linear-gradient-78);}.cls-98{fill:url(#linear-gradient-79);}.cls-99{fill:url(#linear-gradient-80);}.cls-100{fill:url(#linear-gradient-81);}.cls-101{fill:url(#linear-gradient-82);}.cls-102{fill:url(#linear-gradient-83);}.cls-103{fill:url(#linear-gradient-84);}.cls-104{fill:url(#linear-gradient-85);}.cls-105{fill:url(#linear-gradient-86);}.cls-106{fill:url(#linear-gradient-87);}.cls-107{fill:url(#linear-gradient-88);}.cls-108{fill:url(#linear-gradient-89);}.cls-109{fill:url(#linear-gradient-90);}.cls-110{fill:url(#linear-gradient-91);}.cls-111{fill:url(#linear-gradient-92);}.cls-112{fill:url(#linear-gradient-93);}.cls-113{clip-path:url(#clip-path-3);}.cls-114{mask:url(#mask);}.cls-115{fill:#fff;}.cls-116{mask:url(#mask-2);}.cls-117{mask:url(#mask-3);}.cls-118{mask:url(#mask-4);}</style><radialGradient id="radial-gradient" cx="-58.95" cy="-498.75" r="527.73" gradientTransform="matrix(0.71, 0.53, -0.71, 0.53, 264.97, 364.09)" gradientUnits="userSpaceOnUse"><stop offset="0" stop-color="#fff"/><stop offset="1" stop-color="#010101"/></radialGradient><radialGradient id="radial-gradient-2" cx="-359.38" cy="-529.41" r="527.73" xlink:href="#radial-gradient"/><radialGradient id="radial-gradient-3" cx="-1526.13" cy="-655.87" r="527.72" gradientTransform="matrix(-0.71, 0.53, -0.71, -0.53, -567.54, 890.33)" xlink:href="#radial-gradient"/><radialGradient id="radial-gradient-4" cx="-1233.86" cy="-629.31" r="527.73" gradientTransform="matrix(-0.71, 0.53, -0.71, -0.53, -567.54, 890.33)" xlink:href="#radial-gradient"/><radialGradient id="radial-gradient-5" cx="424.24" cy="599.64" r="1205.02" gradientTransform="translate(327.96 468.29) scale(1 0.75)" gradientUnits="userSpaceOnUse"><stop offset="0.01" stop-color="#fff"/><stop offset="0.25" stop-color="#fdfdfd"/><stop offset="0.38" stop-color="#f4f4f4"/><stop offset="0.49" stop-color="#e7e7e7"/><stop offset="0.59" stop-color="#d3d3d3"/><stop offset="0.68" stop-color="#b9b9b9"/><stop offset="0.76" stop-color="#9a9a9a"/><stop offset="0.83" stop-color="#747474"/><stop offset="0.9" stop-color="#494949"/><stop offset="0.97" stop-color="#191919"/><stop offset="1" stop-color="#010101"/></radialGradient><clipPath id="clip-path" transform="translate(240.2 536.58)"><rect class="cls-5" x="-8.25" y="-8.37" width="1040.51" height="785.37"/></clipPath><linearGradient id="linear-gradient" x1="-385.67" y1="-625.89" x2="-142.25" y2="-625.89" gradientTransform="translate(317.82 1068.15) rotate(45)" gradientUnits="userSpaceOnUse"><stop offset="0" stop-color="#959595"/><stop offset="0.13" stop-color="#8b8b8b"/><stop offset="0.35" stop-color="#707070"/><stop offset="0.63" stop-color="#454545"/><stop offset="0.96" stop-color="#090909"/><stop offset="1" stop-color="#010101"/></linearGradient><linearGradient id="linear-gradient-2" x1="-475.67" y1="-509.19" x2="-171.63" y2="-509.19" xlink:href="#linear-gradient"/><linearGradient id="linear-gradient-3" x1="-130.91" y1="-733.47" x2="-58.94" y2="-733.47" xlink:href="#linear-gradient"/><linearGradient id="linear-gradient-4" x1="-176.78" y1="-738.27" x2="-120.21" y2="-738.27" xlink:href="#linear-gradient"/><linearGradient id="linear-gradient-5" x1="-208.1" y1="-833.95" x2="52.87" y2="-833.95" xlink:href="#linear-gradient"/><linearGradient id="linear-gradient-6" x1="-112.02" y1="-757.14" x2="17.23" y2="-757.14" xlink:href="#linear-gradient"/><linearGradient id="linear-gradient-7" x1="-53.06" y1="-714.98" x2="-22.48" y2="-714.98" xlink:href="#linear-gradient"/><linearGradient id="linear-gradient-8" x1="-64.86" y1="-662.66" x2="-25.31" y2="-662.66" xlink:href="#linear-gradient"/><linearGradient id="linear-gradient-9" x1="-79.5" y1="-558.03" x2="-39.91" y2="-558.03" xlink:href="#linear-gradient"/><linearGradient id="linear-gradient-10" x1="-67.68" y1="-610.34" x2="-37.11" y2="-610.34" xlink:href="#linear-gradient"/><linearGradient id="linear-gradient-11" x1="-107.28" y1="-553.52" x2="-76.66" y2="-553.52" xlink:href="#linear-gradient"/><linearGradient id="linear-gradient-12" x1="-104.45" y1="-605.84" x2="-64.86" y2="-605.84" xlink:href="#linear-gradient"/><linearGradient id="linear-gradient-13" x1="-330.5" y1="-469.91" x2="-258.51" y2="-469.91" xlink:href="#linear-gradient"/><linearGradient id="linear-gradient-14" x1="-376.39" y1="-477.03" x2="-318.67" y2="-477.03" xlink:href="#linear-gradient"/><linearGradient id="linear-gradient-15" x1="-420.58" y1="-468.75" x2="-364.56" y2="-468.75" xlink:href="#linear-gradient"/><linearGradient id="linear-gradient-16" x1="-251.84" y1="-547.96" x2="-184.22" y2="-547.96" xlink:href="#linear-gradient"/><linearGradient id="linear-gradient-17" x1="-1737.11" y1="119.16" x2="-1249.91" y2="119.16" gradientTransform="translate(-1210.87 1057.99) rotate(180)" xlink:href="#linear-gradient"/><linearGradient id="linear-gradient-18" x1="-1478.5" y1="79.16" x2="-1187.57" y2="79.16" gradientTransform="translate(-1210.87 1057.99) rotate(180)" xlink:href="#linear-gradient"/><linearGradient id="linear-gradient-19" x1="-1338.8" y1="98.66" x2="-1187.57" y2="98.66" gradientTransform="translate(-1210.87 1057.99) rotate(180)" xlink:href="#linear-gradient"/><linearGradient id="linear-gradient-20" x1="-1375.75" y1="216.31" x2="-1296.09" y2="216.31" gradientTransform="translate(-1210.87 1057.99) rotate(180)" xlink:href="#linear-gradient"/><linearGradient id="linear-gradient-21" x1="-1296.09" y1="218.42" x2="-1187.57" y2="218.42" gradientTransform="translate(-1210.87 1057.99) rotate(180)" xlink:href="#linear-gradient"/><linearGradient id="linear-gradient-22" x1="-1375.75" y1="349.41" x2="-1296.06" y2="349.41" gradientTransform="translate(-1210.87 1057.99) rotate(180)" xlink:href="#linear-gradient"/><linearGradient id="linear-gradient-23" x1="-1296.09" y1="362.18" x2="-1250.21" y2="362.18" gradientTransform="translate(-1210.87 1057.99) rotate(180)" xlink:href="#linear-gradient"/><linearGradient id="linear-gradient-24" x1="-1250.21" y1="359.73" x2="-1191.65" y2="359.73" gradientTransform="translate(-1210.87 1057.99) rotate(180)" xlink:href="#linear-gradient"/><linearGradient id="linear-gradient-25" x1="-1296.06" y1="282.37" x2="-900.14" y2="282.37" gradientTransform="translate(-1210.87 1057.99) rotate(180)" xlink:href="#linear-gradient"/><linearGradient id="linear-gradient-26" x1="-1558.17" y1="283.2" x2="-1478.5" y2="283.2" gradientTransform="translate(-1210.87 1057.99) rotate(180)" xlink:href="#linear-gradient"/><linearGradient id="linear-gradient-27" x1="-1537.96" y1="340.44" x2="-1398.71" y2="340.44" gradientTransform="translate(-1210.87 1057.99) rotate(180)" xlink:href="#linear-gradient"/><linearGradient id="linear-gradient-28" x1="-1645.86" y1="250.71" x2="-1506.62" y2="250.71" gradientTransform="translate(-1210.87 1057.99) rotate(180)" xlink:href="#linear-gradient"/><linearGradient id="linear-gradient-29" x1="-1463.45" y1="246.54" x2="-1391.73" y2="246.54" gradientTransform="translate(-1210.87 1057.99) rotate(180)" xlink:href="#linear-gradient"/><linearGradient id="linear-gradient-30" x1="-1417.89" y1="163.35" x2="-1346.15" y2="163.35" gradientTransform="translate(-1210.87 1057.99) rotate(180)" xlink:href="#linear-gradient"/><linearGradient id="linear-gradient-31" x1="-1609.53" y1="472.55" x2="-1541.11" y2="472.55" gradientTransform="translate(-1210.87 1057.99) rotate(180)" xlink:href="#linear-gradient"/><linearGradient id="linear-gradient-32" x1="-1674.43" y1="430.02" x2="-1541.11" y2="430.02" gradientTransform="translate(-1210.87 1057.99) rotate(180)" xlink:href="#linear-gradient"/><linearGradient id="linear-gradient-33" x1="-1674.43" y1="398.78" x2="-1606.03" y2="398.78" gradientTransform="translate(-1210.87 1057.99) rotate(180)" xlink:href="#linear-gradient"/><linearGradient id="linear-gradient-34" x1="-1531.63" y1="398.01" x2="-1397.6" y2="398.01" gradientTransform="translate(-1210.87 1057.99) rotate(180)" xlink:href="#linear-gradient"/><linearGradient id="linear-gradient-35" x1="-1662.91" y1="338.4" x2="-1646.74" y2="338.4" gradientTransform="translate(-1210.87 1057.99) rotate(180)" xlink:href="#linear-gradient"/><linearGradient id="linear-gradient-36" x1="-1731.09" y1="370.2" x2="-1662.91" y2="370.2" gradientTransform="translate(-1210.87 1057.99) rotate(180)" xlink:href="#linear-gradient"/><linearGradient id="linear-gradient-37" x1="-1815.43" y1="433.83" x2="-1747.22" y2="433.83" gradientTransform="translate(-1210.87 1057.99) rotate(180)" xlink:href="#linear-gradient"/><linearGradient id="linear-gradient-38" x1="-1747.22" y1="402" x2="-1731.09" y2="402" gradientTransform="translate(-1210.87 1057.99) rotate(180)" xlink:href="#linear-gradient"/><linearGradient id="linear-gradient-39" x1="-1815.43" y1="414.24" x2="-1799.22" y2="414.24" gradientTransform="translate(-1210.87 1057.99) rotate(180)" xlink:href="#linear-gradient"/><linearGradient id="linear-gradient-40" x1="-1799.22" y1="382.41" x2="-1731.09" y2="382.41" gradientTransform="translate(-1210.87 1057.99) rotate(180)" xlink:href="#linear-gradient"/><linearGradient id="linear-gradient-41" x1="-1380.51" y1="411.87" x2="-1312.33" y2="411.87" gradientTransform="translate(-1210.87 1057.99) rotate(180)" xlink:href="#linear-gradient"/><linearGradient id="linear-gradient-42" x1="-1312.33" y1="443.7" x2="-1296.18" y2="443.7" gradientTransform="translate(-1210.87 1057.99) rotate(180)" xlink:href="#linear-gradient"/><linearGradient id="linear-gradient-43" x1="-1228.03" y1="507.33" x2="-1211.82" y2="507.33" gradientTransform="translate(-1210.87 1057.99) rotate(180)" xlink:href="#linear-gradient"/><linearGradient id="linear-gradient-44" x1="-1296.18" y1="475.54" x2="-1228.03" y2="475.54" gradientTransform="translate(-1210.87 1057.99) rotate(180)" xlink:href="#linear-gradient"/><linearGradient id="linear-gradient-45" x1="-1280.04" y1="527.01" x2="-1211.85" y2="527.01" gradientTransform="translate(-1210.87 1057.99) rotate(180)" xlink:href="#linear-gradient"/><linearGradient id="linear-gradient-46" x1="-1296.21" y1="495.16" x2="-1280.04" y2="495.16" gradientTransform="translate(-1210.87 1057.99) rotate(180)" xlink:href="#linear-gradient"/><linearGradient id="linear-gradient-47" x1="-1596.22" y1="380.11" x2="-1570.14" y2="380.11" gradientTransform="translate(-1210.87 1057.99) rotate(180)" xlink:href="#linear-gradient"/><linearGradient id="linear-gradient-48" x1="-1570.14" y1="380.11" x2="-1544.03" y2="380.11" gradientTransform="translate(-1210.87 1057.99) rotate(180)" xlink:href="#linear-gradient"/><linearGradient id="linear-gradient-49" x1="-1466" y1="481.27" x2="-1397.6" y2="481.27" gradientTransform="translate(-1210.87 1057.99) rotate(180)" xlink:href="#linear-gradient"/><linearGradient id="linear-gradient-50" x1="-1226.47" y1="-89.03" x2="-1187.69" y2="-89.03" gradientTransform="translate(-1210.87 1057.99) rotate(180)" xlink:href="#linear-gradient"/><linearGradient id="linear-gradient-51" x1="502.82" y1="-1025.8" x2="578.67" y2="-1025.8" xlink:href="#linear-gradient"/><linearGradient id="linear-gradient-52" x1="459.69" y1="-1081.03" x2="583.1" y2="-1081.03" xlink:href="#linear-gradient"/><linearGradient id="linear-gradient-53" x1="459.69" y1="-1099.13" x2="529.68" y2="-1099.13" xlink:href="#linear-gradient"/><linearGradient id="linear-gradient-54" x1="422.89" y1="-1142.81" x2="484.72" y2="-1142.81" xlink:href="#linear-gradient"/><linearGradient id="linear-gradient-55" x1="338.56" y1="-1058.52" x2="400.37" y2="-1058.52" xlink:href="#linear-gradient"/><linearGradient id="linear-gradient-56" x1="400.37" y1="-1100.68" x2="422.89" y2="-1100.68" xlink:href="#linear-gradient"/><linearGradient id="linear-gradient-57" x1="338.56" y1="-1078.13" x2="361.15" y2="-1078.13" xlink:href="#linear-gradient"/><linearGradient id="linear-gradient-58" x1="361.15" y1="-1120.29" x2="422.89" y2="-1120.29" xlink:href="#linear-gradient"/><linearGradient id="linear-gradient-59" x1="-2528.73" y1="-324.21" x2="-2237.8" y2="-324.21" gradientTransform="translate(-1210.87 1057.99) rotate(180)" xlink:href="#linear-gradient"/><linearGradient id="linear-gradient-60" x1="-2716.86" y1="-283.32" x2="-2637.2" y2="-283.32" gradientTransform="translate(-1210.87 1057.99) rotate(180)" xlink:href="#linear-gradient"/><linearGradient id="linear-gradient-61" x1="-2528.68" y1="-331.71" x2="-2449.02" y2="-331.71" gradientTransform="translate(-1210.87 1057.99) rotate(180)" xlink:href="#linear-gradient"/><linearGradient id="linear-gradient-62" x1="-2637.2" y1="-265.82" x2="-2528.68" y2="-265.82" gradientTransform="translate(-1210.87 1057.99) rotate(180)" xlink:href="#linear-gradient"/><linearGradient id="linear-gradient-63" x1="-2528.68" y1="-188.07" x2="-2237.8" y2="-188.07" gradientTransform="translate(-1210.87 1057.99) rotate(180)" xlink:href="#linear-gradient"/><linearGradient id="linear-gradient-64" x1="-2716.86" y1="-137.02" x2="-2637.17" y2="-137.02" gradientTransform="translate(-1210.87 1057.99) rotate(180)" xlink:href="#linear-gradient"/><linearGradient id="linear-gradient-65" x1="-2637.2" y1="-130.85" x2="-2591.34" y2="-130.85" gradientTransform="translate(-1210.87 1057.99) rotate(180)" xlink:href="#linear-gradient"/><linearGradient id="linear-gradient-66" x1="-2591.34" y1="-126.04" x2="-2532.74" y2="-126.04" gradientTransform="translate(-1210.87 1057.99) rotate(180)" xlink:href="#linear-gradient"/><linearGradient id="linear-gradient-67" x1="-2637.17" y1="-93.38" x2="-2241.25" y2="-93.38" gradientTransform="translate(-1210.87 1057.99) rotate(180)" xlink:href="#linear-gradient"/><linearGradient id="linear-gradient-68" x1="-2525.26" y1="-133.01" x2="-2357.77" y2="-133.01" gradientTransform="translate(-1210.87 1057.99) rotate(180)" xlink:href="#linear-gradient"/><linearGradient id="linear-gradient-69" x1="-2442.92" y1="-261.55" x2="-2350.86" y2="-261.55" gradientTransform="translate(-1210.87 1057.99) rotate(180)" xlink:href="#linear-gradient"/><linearGradient id="linear-gradient-70" x1="-2570.51" y1="-345.88" x2="-2533.69" y2="-345.88" gradientTransform="translate(-1210.87 1057.99) rotate(180)" xlink:href="#linear-gradient"/><linearGradient id="linear-gradient-71" x1="-2570.54" y1="-300.88" x2="-2533.69" y2="-300.88" gradientTransform="translate(-1210.87 1057.99) rotate(180)" xlink:href="#linear-gradient"/><linearGradient id="linear-gradient-72" x1="-2239.42" y1="-199.64" x2="-2159.72" y2="-199.64" gradientTransform="translate(-1210.87 1057.99) rotate(180)" xlink:href="#linear-gradient"/><linearGradient id="linear-gradient-73" x1="-2285.25" y1="-212.39" x2="-2239.39" y2="-212.39" gradientTransform="translate(-1210.87 1057.99) rotate(180)" xlink:href="#linear-gradient"/><linearGradient id="linear-gradient-74" x1="-2343.88" y1="-217.19" x2="-2285.25" y2="-217.19" gradientTransform="translate(-1210.87 1057.99) rotate(180)" xlink:href="#linear-gradient"/><linearGradient id="linear-gradient-75" x1="-2354.82" y1="-288.15" x2="-2045.44" y2="-288.15" gradientTransform="translate(-1210.87 1057.99) rotate(180)" xlink:href="#linear-gradient"/><linearGradient id="linear-gradient-76" x1="-2232.58" y1="-218.77" x2="-2065.12" y2="-218.77" gradientTransform="translate(-1210.87 1057.99) rotate(180)" xlink:href="#linear-gradient"/><linearGradient id="linear-gradient-77" x1="-2148.21" y1="-174.83" x2="-2111.46" y2="-174.83" gradientTransform="translate(-1210.87 1057.99) rotate(180)" xlink:href="#linear-gradient"/><linearGradient id="linear-gradient-78" x1="-2148.21" y1="-129.84" x2="-2111.43" y2="-129.84" gradientTransform="translate(-1210.87 1057.99) rotate(180)" xlink:href="#linear-gradient"/><linearGradient id="linear-gradient-79" x1="-2148.21" y1="-39.83" x2="-2111.43" y2="-39.83" gradientTransform="translate(-1210.87 1057.99) rotate(180)" xlink:href="#linear-gradient"/><linearGradient id="linear-gradient-80" x1="-2148.21" y1="-84.84" x2="-2111.46" y2="-84.84" gradientTransform="translate(-1210.87 1057.99) rotate(180)" xlink:href="#linear-gradient"/><linearGradient id="linear-gradient-81" x1="-2185.03" y1="-39.83" x2="-2148.17" y2="-39.83" gradientTransform="translate(-1210.87 1057.99) rotate(180)" xlink:href="#linear-gradient"/><linearGradient id="linear-gradient-82" x1="-2185.03" y1="-84.84" x2="-2148.17" y2="-84.84" gradientTransform="translate(-1210.87 1057.99) rotate(180)" xlink:href="#linear-gradient"/><linearGradient id="linear-gradient-83" x1="-2357.43" y1="-277.68" x2="-2285.69" y2="-277.68" gradientTransform="translate(-1210.87 1057.99) rotate(180)" xlink:href="#linear-gradient"/><linearGradient id="linear-gradient-84" x1="-2285.69" y1="-258.05" x2="-2266.11" y2="-258.05" gradientTransform="translate(-1210.87 1057.99) rotate(180)" xlink:href="#linear-gradient"/><linearGradient id="linear-gradient-85" x1="-2428.32" y1="8.68" x2="-2348.62" y2="8.68" gradientTransform="translate(-1210.87 1057.99) rotate(180)" xlink:href="#linear-gradient"/><linearGradient id="linear-gradient-86" x1="-2474.21" y1="-4.07" x2="-2428.29" y2="-4.07" gradientTransform="translate(-1210.87 1057.99) rotate(180)" xlink:href="#linear-gradient"/><linearGradient id="linear-gradient-87" x1="-2532.74" y1="-8.83" x2="-2474.15" y2="-8.83" gradientTransform="translate(-1210.87 1057.99) rotate(180)" xlink:href="#linear-gradient"/><linearGradient id="linear-gradient-88" x1="-2653.46" y1="-49.33" x2="-2637.27" y2="-49.33" gradientTransform="translate(-1210.87 1057.99) rotate(180)" xlink:href="#linear-gradient"/><linearGradient id="linear-gradient-89" x1="-2569.12" y1="14.3" x2="-2552.93" y2="14.3" gradientTransform="translate(-1210.87 1057.99) rotate(180)" xlink:href="#linear-gradient"/><linearGradient id="linear-gradient-90" x1="-2637.27" y1="-17.49" x2="-2569.12" y2="-17.49" gradientTransform="translate(-1210.87 1057.99) rotate(180)" xlink:href="#linear-gradient"/><linearGradient id="linear-gradient-91" x1="-2621.15" y1="33.97" x2="-2552.96" y2="33.97" gradientTransform="translate(-1210.87 1057.99) rotate(180)" xlink:href="#linear-gradient"/><linearGradient id="linear-gradient-92" x1="-2637.34" y1="2.13" x2="-2621.15" y2="2.13" gradientTransform="translate(-1210.87 1057.99) rotate(180)" xlink:href="#linear-gradient"/><linearGradient id="linear-gradient-93" x1="-2349.17" y1="-50.43" x2="-2275.33" y2="-50.43" gradientTransform="translate(-1210.87 1057.99) rotate(180)" xlink:href="#linear-gradient"/><clipPath id="clip-path-3" transform="translate(240.2 536.58)"><rect class="cls-5" x="-8.25" y="-8.35" width="1040.51" height="785.35"/></clipPath><mask id="mask" x="182.6" y="124.81" width="1267.1" height="956.38" maskUnits="userSpaceOnUse"><g transform="translate(240.2 536.58)"><polygon class="cls-1" points="181.49 544.61 -57.6 364.17 970.41 -411.77 1209.5 -231.28 181.49 544.61"/></g></mask><mask id="mask-2" x="-8.16" y="-51.9" width="1267.1" height="956.38" maskUnits="userSpaceOnUse"><g transform="translate(240.2 536.58)"><polygon class="cls-2" points="-9.27 367.9 -248.36 187.46 779.65 -588.48 1018.74 -407.99 -9.27 367.9"/></g></mask><mask id="mask-3" x="582" y="484.26" width="1267.1" height="956.38" maskUnits="userSpaceOnUse"><g transform="translate(240.2 536.58)"><polygon class="cls-3" points="341.8 128.15 580.89 -52.32 1608.9 723.57 1369.78 904.06 341.8 128.15"/></g></mask><mask id="mask-4" x="356.56" y="626.07" width="1267.1" height="956.35" maskUnits="userSpaceOnUse"><g transform="translate(240.2 536.58)"><polygon class="cls-4" points="116.36 269.93 355.45 89.49 1383.46 865.4 1144.33 1045.85 116.36 269.93"/></g></mask></defs><title>Background_ALL</title><g class="cls-6"><g id="Layer_2" data-name="Layer 2"><rect class="cls-7" x="231.95" y="528.21" width="1040.51" height="785.37"/><g class="cls-8"><g class="cls-9"><polygon class="cls-10" points="595.67 417.79 595.67 572.33 664.09 520.72 664.07 417.79 595.67 417.79"/><polygon class="cls-11" points="493.51 417.79 493.48 645.81 509.65 633.59 509.65 417.79 493.51 417.79"/><polygon class="cls-11" points="798.18 417.79 736.38 464.45 736.38 549.48 804.78 497.84 804.78 417.79 798.18 417.79"/><polygon class="cls-12" points="733.32 417.79 671.52 464.45 736.38 464.45 798.18 417.79 733.32 417.79"/><polygon class="cls-13" points="883.82 417.79 883.82 560.17 952.21 508.52 952.21 417.79 883.82 417.79"/><polygon class="cls-14" points="816.27 417.79 816.3 590.1 832.42 577.91 832.42 417.79 816.27 417.79"/><polygon class="cls-15" points="804.75 549.43 804.75 510.16 788.58 522.35 788.58 561.6 804.75 549.43"/><polygon class="cls-13" points="772.45 573.82 720.43 573.82 736.57 561.6 788.58 561.6 772.45 573.82"/><polygon class="cls-15" points="688.13 637.45 636.09 637.45 652.26 625.28 704.27 625.25 688.13 637.45"/><polygon class="cls-13" points="720.39 613.09 720.43 573.82 704.27 585.99 704.27 625.25 720.39 613.09"/><polygon class="cls-14" points="636.09 598.15 636.09 637.45 652.26 625.28 652.26 585.99 636.09 598.15"/><polygon class="cls-16" points="668.35 573.82 720.43 573.82 704.27 585.99 652.26 585.99 668.35 573.82"/><polygon class="cls-15" points="476.02 544.37 476.02 459.29 407.65 510.93 407.65 595.96 476.02 544.37"/><polygon class="cls-13" points="411.12 459.29 476.02 459.29 407.65 510.93 342.76 510.93 411.12 459.29"/><polygon class="cls-15" points="383.31 417.79 342.76 448.42 342.76 510.93 411.12 459.29 411.12 417.79 383.31 417.79"/><polygon class="cls-17" points="585.3 540.15 585.3 461.28 516.9 512.92 516.93 591.76 585.3 540.15"/><g class="cls-18"><polygon class="cls-19" points="595.67 417.79 595.67 572.33 664.09 520.72 664.07 417.79 595.67 417.79"/><polygon class="cls-20" points="493.51 417.79 493.48 645.81 509.65 633.59 509.65 417.79 493.51 417.79"/><polygon class="cls-21" points="798.18 417.79 736.38 464.45 736.38 549.48 804.78 497.84 804.78 417.79 798.18 417.79"/><polygon class="cls-22" points="733.32 417.79 671.52 464.45 736.38 464.45 798.18 417.79 733.32 417.79"/><polygon class="cls-23" points="883.82 417.79 883.82 560.17 952.21 508.52 952.21 417.79 883.82 417.79"/><polygon class="cls-24" points="816.27 417.79 816.3 590.1 832.42 577.91 832.42 417.79 816.27 417.79"/><polygon class="cls-25" points="804.75 549.43 804.75 510.16 788.58 522.35 788.58 561.6 804.75 549.43"/><polygon class="cls-26" points="772.45 573.82 720.43 573.82 736.57 561.6 788.58 561.6 772.45 573.82"/><polygon class="cls-27" points="688.13 637.45 636.09 637.45 652.26 625.28 704.27 625.25 688.13 637.45"/><polygon class="cls-28" points="720.39 613.09 720.43 573.82 704.27 585.99 704.27 625.25 720.39 613.09"/><polygon class="cls-29" points="636.09 598.15 636.09 637.45 652.26 625.28 652.26 585.99 636.09 598.15"/><polygon class="cls-30" points="668.35 573.82 720.43 573.82 704.27 585.99 652.26 585.99 668.35 573.82"/><polygon class="cls-31" points="476.02 544.37 476.02 459.29 407.65 510.93 407.65 595.96 476.02 544.37"/><polygon class="cls-32" points="411.12 459.29 476.02 459.29 407.65 510.93 342.76 510.93 411.12 459.29"/><polygon class="cls-33" points="383.31 417.79 342.76 448.42 342.76 510.93 411.12 459.29 411.12 417.79 383.31 417.79"/><polygon class="cls-34" points="585.3 540.15 585.3 461.28 516.9 512.92 516.93 591.76 585.3 540.15"/></g><polygon class="cls-10" points="526.2 791.48 39.04 1159.19 39.04 1086.2 526.23 718.47 526.2 791.48"/><polygon class="cls-14" points="0 1043.33 0 1116.32 267.6 914.32 267.63 841.33 0 1043.33"/><polygon class="cls-17" points="0 971.92 0 1043.33 127.93 946.79 127.93 875.34 0 971.92"/><polygon class="cls-15" points="164.88 848.14 85.22 908.21 85.22 835.25 164.88 775.15 164.88 848.14"/><polygon class="cls-13" points="0 770.93 0 843.89 85.22 908.21 85.22 835.25 0 770.93"/><polygon class="cls-10" points="164.88 702.11 85.22 642 85.19 714.99 164.88 775.15 164.88 702.11"/><polygon class="cls-16" points="39.34 676.64 85.22 642 85.19 714.99 39.34 749.61 39.34 676.64"/><polygon class="cls-14" points="0 646.91 0 719.92 39.34 749.61 39.34 676.64 0 646.91"/><polygon class="cls-11" points="0 734.85 0 752.09 85.19 816.38 85.19 799.15 0 734.85"/><polygon class="cls-13" points="347.29 781.18 267.63 841.33 267.63 768.32 347.29 708.24 347.29 781.18"/><polygon class="cls-17" points="327.09 673.57 187.83 778.7 187.83 761.47 327.04 656.39 327.09 673.57"/><polygon class="cls-16" points="434.98 763.36 295.78 868.43 295.74 851.25 434.98 746.13 434.98 763.36"/><polygon class="cls-35" points="252.58 792.97 180.85 847.11 180.89 829.88 252.58 775.78 252.58 792.97"/><polygon class="cls-11" points="207.02 876.21 135.28 930.33 135.28 913.07 206.97 858.95 207.02 876.21"/><polygon class="cls-11" points="330.24 568.7 330.24 653.78 398.63 602.14 398.66 517.09 330.24 568.7"/><polygon class="cls-12" points="395.19 653.78 330.24 653.78 398.63 602.14 463.56 602.14 395.19 653.78"/><polygon class="cls-11" points="395.19 653.78 395.15 716.27 463.56 664.65 463.56 602.14 395.19 653.78"/><polygon class="cls-14" points="320.76 645.96 186.73 747 186.73 674.01 320.72 572.95 320.76 645.96"/><polygon class="cls-15" points="435.86 706.04 435.86 745.31 452.04 733.12 452.04 693.87 435.86 706.04"/><polygon class="cls-13" points="468.16 681.71 520.22 681.71 504.08 693.87 452.04 693.87 468.16 681.71"/><polygon class="cls-15" points="552.52 618.04 604.56 618.04 588.38 630.27 536.34 630.27 552.52 618.04"/><polygon class="cls-13" points="520.22 642.38 520.22 681.71 536.34 669.49 536.34 630.27 520.22 642.38"/><polygon class="cls-14" points="604.52 657.31 604.56 618.04 588.38 630.27 588.35 669.46 604.52 657.31"/><polygon class="cls-16" points="572.18 681.65 520.22 681.71 536.34 669.49 588.35 669.46 572.18 681.65"/><polygon class="cls-11" points="117.6 652.2 169.64 652.2 153.47 640.03 101.46 640.03 117.6 652.2"/><polygon class="cls-12" points="85.34 627.84 85.3 588.54 101.46 600.71 101.46 640.03 85.34 627.84"/><polygon class="cls-15" points="0.95 564.18 0.98 524.94 17.16 537.11 17.16 576.37 0.95 564.18"/><polygon class="cls-13" points="33.3 588.54 85.3 588.54 69.17 576.35 17.16 576.37 33.3 588.54"/><polygon class="cls-14" points="53.01 524.86 0.98 524.94 17.16 537.11 69.17 537.11 53.01 524.86"/><polygon class="cls-16" points="85.34 549.28 85.3 588.54 69.17 576.35 69.17 537.11 85.34 549.28"/><polygon class="cls-10" points="385.35 676.64 359.27 696.38 359.27 679.15 385.35 659.38 385.35 676.64"/><polygon class="cls-14" points="333.15 676.64 359.27 696.38 359.27 679.15 333.15 659.38 333.15 676.64"/><polygon class="cls-17" points="255.13 622.37 255.04 479.43 186.73 531.05 186.8 674.01 255.13 622.37"/><polygon class="cls-17" points="0 1116.39 0 1189.38 15.6 1177.62 15.6 1104.66 0 1116.39"/><g class="cls-18"><polygon class="cls-36" points="526.2 791.48 39.04 1159.19 39.04 1086.2 526.23 718.47 526.2 791.48"/><polygon class="cls-37" points="0 1043.33 0 1116.32 267.6 914.32 267.63 841.33 0 1043.33"/><polygon class="cls-38" points="0 971.92 0 1043.33 127.93 946.79 127.93 875.34 0 971.92"/><polygon class="cls-39" points="164.88 848.14 85.22 908.21 85.22 835.25 164.88 775.15 164.88 848.14"/><polygon class="cls-40" points="0 770.93 0 843.89 85.22 908.21 85.22 835.25 0 770.93"/><polygon class="cls-41" points="164.88 702.11 85.22 642 85.19 714.99 164.88 775.15 164.88 702.11"/><polygon class="cls-42" points="39.34 676.64 85.22 642 85.19 714.99 39.34 749.61 39.34 676.64"/><polygon class="cls-43" points="0 646.91 0 719.92 39.34 749.61 39.34 676.64 0 646.91"/><polygon class="cls-44" points="0 734.85 0 752.09 85.19 816.38 85.19 799.15 0 734.85"/><polygon class="cls-45" points="347.29 781.18 267.63 841.33 267.63 768.32 347.29 708.24 347.29 781.18"/><polygon class="cls-46" points="327.09 673.57 187.83 778.7 187.83 761.47 327.04 656.39 327.09 673.57"/><polygon class="cls-47" points="434.98 763.36 295.78 868.43 295.74 851.25 434.98 746.13 434.98 763.36"/><polygon class="cls-48" points="252.58 792.97 180.85 847.11 180.89 829.88 252.58 775.78 252.58 792.97"/><polygon class="cls-49" points="207.02 876.21 135.28 930.33 135.28 913.07 206.97 858.95 207.02 876.21"/><polygon class="cls-50" points="330.24 568.7 330.24 653.78 398.63 602.14 398.66 517.09 330.24 568.7"/><polygon class="cls-51" points="395.19 653.78 330.24 653.78 398.63 602.14 463.56 602.14 395.19 653.78"/><polygon class="cls-52" points="395.19 653.78 395.15 716.27 463.56 664.65 463.56 602.14 395.19 653.78"/><polygon class="cls-53" points="320.76 645.96 186.73 747 186.73 674.01 320.72 572.95 320.76 645.96"/><polygon class="cls-54" points="435.86 706.04 435.86 745.31 452.04 733.12 452.04 693.87 435.86 706.04"/><polygon class="cls-55" points="468.16 681.71 520.22 681.71 504.08 693.87 452.04 693.87 468.16 681.71"/><polygon class="cls-56" points="552.52 618.04 604.56 618.04 588.38 630.27 536.34 630.27 552.52 618.04"/><polygon class="cls-57" points="520.22 642.38 520.22 681.71 536.34 669.49 536.34 630.27 520.22 642.38"/><polygon class="cls-58" points="604.52 657.31 604.56 618.04 588.38 630.27 588.35 669.46 604.52 657.31"/><polygon class="cls-59" points="572.18 681.65 520.22 681.71 536.34 669.49 588.35 669.46 572.18 681.65"/><polygon class="cls-60" points="117.6 652.2 169.64 652.2 153.47 640.03 101.46 640.03 117.6 652.2"/><polygon class="cls-61" points="85.34 627.84 85.3 588.54 101.46 600.71 101.46 640.03 85.34 627.84"/><polygon class="cls-62" points="0.95 564.18 0.98 524.94 17.16 537.11 17.16 576.37 0.95 564.18"/><polygon class="cls-63" points="33.3 588.54 85.3 588.54 69.17 576.35 17.16 576.37 33.3 588.54"/><polygon class="cls-64" points="53.01 524.86 0.98 524.94 17.16 537.11 69.17 537.11 53.01 524.86"/><polygon class="cls-65" points="85.34 549.28 85.3 588.54 69.17 576.35 69.17 537.11 85.34 549.28"/><polygon class="cls-66" points="385.35 676.64 359.27 696.38 359.27 679.15 385.35 659.38 385.35 676.64"/><polygon class="cls-67" points="333.15 676.64 359.27 696.38 359.27 679.15 333.15 659.38 333.15 676.64"/><polygon class="cls-68" points="255.13 622.37 255.04 479.43 186.73 531.05 186.8 674.01 255.13 622.37"/><polygon class="cls-69" points="0 1116.39 0 1189.38 15.6 1177.62 15.6 1104.66 0 1116.39"/></g></g></g><g class="cls-8"><g class="cls-9"><polygon class="cls-11" points="1488.51 688.2 1428.43 688.22 1348.73 748.33 1445.43 748.33 1488.51 715.81 1488.51 688.2"/><polygon class="cls-12" points="1488.51 660.54 1479.23 653.53 1382.5 653.56 1428.43 688.22 1488.51 688.2 1488.51 660.54"/><polygon class="cls-11" points="1488.51 609.35 1441.09 609.35 1382.5 653.56 1479.23 653.53 1488.51 646.53 1488.51 609.35"/><polygon class="cls-13" points="1453.76 594.86 1416.98 567.04 1439.81 567.04 1476.59 594.86 1453.76 594.86"/><polygon class="cls-15" points="1334.5 594.81 1297.72 567.04 1320.58 567.04 1357.37 594.81 1334.5 594.81"/><polygon class="cls-13" points="1380.13 594.86 1416.98 567.04 1394.15 567.07 1357.37 594.81 1380.13 594.86"/><polygon class="cls-14" points="1334.5 539.28 1297.72 567.04 1320.58 567.04 1357.37 539.33 1334.5 539.28"/><polygon class="cls-16" points="1380.2 539.33 1416.98 567.04 1394.15 567.07 1357.37 539.33 1380.2 539.33"/><g class="cls-18"><polygon class="cls-70" points="1488.51 688.2 1428.43 688.22 1348.73 748.33 1445.43 748.33 1488.51 715.81 1488.51 688.2"/><polygon class="cls-71" points="1488.51 660.54 1479.23 653.53 1382.5 653.56 1428.43 688.22 1488.51 688.2 1488.51 660.54"/><polygon class="cls-72" points="1488.51 609.35 1441.09 609.35 1382.5 653.56 1479.23 653.53 1488.51 646.53 1488.51 609.35"/><polygon class="cls-73" points="1453.76 594.86 1416.98 567.04 1439.81 567.04 1476.59 594.86 1453.76 594.86"/><polygon class="cls-74" points="1334.5 594.81 1297.72 567.04 1320.58 567.04 1357.37 594.81 1334.5 594.81"/><polygon class="cls-75" points="1380.13 594.86 1416.98 567.04 1394.15 567.07 1357.37 594.81 1380.13 594.86"/><polygon class="cls-76" points="1334.5 539.28 1297.72 567.04 1320.58 567.04 1357.37 539.33 1334.5 539.28"/><polygon class="cls-77" points="1380.2 539.33 1416.98 567.04 1394.15 567.07 1357.37 539.33 1380.2 539.33"/></g><polygon class="cls-15" points="1153.74 1430.06 1026.92 1334.34 1026.92 1407.35 1057 1430.06 1153.74 1430.06"/><polygon class="cls-15" points="1488.51 1281.37 1426.33 1328.28 1426.33 1401.24 1488.51 1354.36 1488.51 1281.37"/><polygon class="cls-17" points="1317.8 1430.06 1317.8 1409.53 1238.14 1349.35 1238.14 1422.36 1248.34 1430.06 1317.8 1430.06"/><polygon class="cls-13" points="1317.8 1319.33 1426.33 1401.24 1426.33 1328.28 1317.8 1246.37 1317.8 1319.33"/><polygon class="cls-10" points="1026.92 1172.79 1317.8 1392.35 1317.8 1319.33 1026.92 1099.78 1026.92 1172.79"/><polygon class="cls-10" points="1488.51 1181.94 1426.33 1135.03 1426.29 1208.02 1488.51 1254.98 1488.51 1181.94"/><polygon class="cls-16" points="1380.47 1169.67 1426.33 1135.03 1426.29 1208.02 1380.47 1242.64 1380.47 1169.67"/><polygon class="cls-14" points="1380.47 1169.67 1321.87 1125.42 1321.87 1198.43 1380.47 1242.64 1380.47 1169.67"/><polygon class="cls-11" points="1030.38 1010.55 1426.29 1309.41 1426.29 1292.18 1030.38 993.32 1030.38 1010.55"/><polygon class="cls-16" points="1146.96 1136.44 1314.35 1262.78 1314.38 1245.55 1146.89 1119.21 1146.96 1136.44"/><polygon class="cls-35" points="1139.98 1293.41 1232.05 1362.9 1232.05 1345.67 1139.98 1276.18 1139.98 1293.41"/><polygon class="cls-15" points="1359.64 1398.61 1322.82 1426.38 1322.82 1409.19 1359.64 1381.35 1359.64 1398.61"/><polygon class="cls-13" points="1359.67 1364.17 1322.82 1336.38 1322.82 1353.64 1359.64 1381.35 1359.67 1364.17"/><polygon class="cls-11" points="948.85 1264.08 1028.55 1324.19 1028.52 1251.17 948.85 1191.07 948.85 1264.08"/><polygon class="cls-12" points="1074.38 1289.58 1028.55 1324.19 1028.52 1251.17 1074.38 1216.56 1074.38 1289.58"/><polygon class="cls-11" points="1074.38 1289.58 1133.01 1333.8 1132.94 1260.74 1074.38 1216.56 1074.38 1289.58"/><polygon class="cls-13" points="960.27 1430.06 1056.93 1430.06 834.57 1262.22 834.62 1335.18 960.27 1430.06"/><polygon class="cls-14" points="854.29 1222.21 1021.71 1348.55 1021.71 1331.3 854.25 1204.95 854.29 1222.21"/><polygon class="cls-15" points="900.59 1227.6 937.34 1255.32 937.34 1238.09 900.59 1210.32 900.59 1227.6"/><polygon class="cls-13" points="900.55 1193.09 937.3 1165.33 937.34 1182.56 900.59 1210.32 900.55 1193.09"/><polygon class="cls-15" points="900.55 1103.1 937.34 1075.31 937.3 1092.57 900.59 1120.33 900.55 1103.1"/><polygon class="cls-13" points="900.59 1137.56 937.3 1165.33 937.34 1148.1 900.59 1120.33 900.59 1137.56"/><polygon class="cls-14" points="974.15 1103.1 937.34 1075.31 937.3 1092.57 974.15 1120.33 974.15 1103.1"/><polygon class="cls-16" points="974.15 1137.54 937.3 1165.33 937.34 1148.1 974.15 1120.33 974.15 1137.54"/><polygon class="cls-16" points="1146.55 1354.15 1074.82 1300 1074.82 1317.23 1146.55 1371.33 1146.55 1354.15"/><polygon class="cls-14" points="1055.24 1314.78 1074.82 1300 1074.82 1317.23 1055.24 1332.06 1055.24 1314.78"/><polygon class="cls-15" points="1137.75 1055.7 1217.45 1115.88 1217.41 1042.84 1137.75 982.74 1137.75 1055.7"/><polygon class="cls-13" points="1263.34 1081.22 1217.45 1115.88 1217.41 1042.84 1263.28 1008.23 1263.34 1081.22"/><polygon class="cls-15" points="1263.34 1081.22 1321.87 1125.42 1321.87 1052.43 1263.28 1008.23 1263.34 1081.22"/><polygon class="cls-12" points="1426.46 1120.87 1426.39 1081.57 1442.59 1093.74 1442.59 1133.06 1426.46 1120.87"/><polygon class="cls-15" points="1342.06 1057.21 1342.09 1017.97 1358.25 1030.13 1358.25 1069.4 1342.06 1057.21"/><polygon class="cls-13" points="1374.4 1081.57 1426.39 1081.57 1410.27 1069.38 1358.25 1069.4 1374.4 1081.57"/><polygon class="cls-14" points="1394.12 1017.89 1342.09 1017.97 1358.25 1030.13 1410.27 1030.13 1394.12 1017.89"/><polygon class="cls-16" points="1426.46 1042.31 1426.39 1081.57 1410.27 1069.38 1410.27 1030.13 1426.46 1042.31"/><polygon class="cls-17" points="1064.45 1117.01 1138.29 1172.79 1138.29 1099.75 1064.45 1044.04 1064.45 1117.01"/><g class="cls-18"><polygon class="cls-78" points="1153.74 1430.06 1026.92 1334.34 1026.92 1407.35 1057 1430.06 1153.74 1430.06"/><polygon class="cls-79" points="1488.51 1281.37 1426.33 1328.28 1426.33 1401.24 1488.51 1354.36 1488.51 1281.37"/><polygon class="cls-80" points="1317.8 1430.06 1317.8 1409.53 1238.14 1349.35 1238.14 1422.36 1248.34 1430.06 1317.8 1430.06"/><polygon class="cls-81" points="1317.8 1319.33 1426.33 1401.24 1426.33 1328.28 1317.8 1246.37 1317.8 1319.33"/><polygon class="cls-82" points="1026.92 1172.79 1317.8 1392.35 1317.8 1319.33 1026.92 1099.78 1026.92 1172.79"/><polygon class="cls-83" points="1488.51 1181.94 1426.33 1135.03 1426.29 1208.02 1488.51 1254.98 1488.51 1181.94"/><polygon class="cls-84" points="1380.47 1169.67 1426.33 1135.03 1426.29 1208.02 1380.47 1242.64 1380.47 1169.67"/><polygon class="cls-85" points="1380.47 1169.67 1321.87 1125.42 1321.87 1198.43 1380.47 1242.64 1380.47 1169.67"/><polygon class="cls-86" points="1030.38 1010.55 1426.29 1309.41 1426.29 1292.18 1030.38 993.32 1030.38 1010.55"/><polygon class="cls-87" points="1146.96 1136.44 1314.35 1262.78 1314.38 1245.55 1146.89 1119.21 1146.96 1136.44"/><polygon class="cls-88" points="1139.98 1293.41 1232.05 1362.9 1232.05 1345.67 1139.98 1276.18 1139.98 1293.41"/><polygon class="cls-89" points="1359.64 1398.61 1322.82 1426.38 1322.82 1409.19 1359.64 1381.35 1359.64 1398.61"/><polygon class="cls-90" points="1359.67 1364.17 1322.82 1336.38 1322.82 1353.64 1359.64 1381.35 1359.67 1364.17"/><polygon class="cls-91" points="948.85 1264.08 1028.55 1324.19 1028.52 1251.17 948.85 1191.07 948.85 1264.08"/><polygon class="cls-92" points="1074.38 1289.58 1028.55 1324.19 1028.52 1251.17 1074.38 1216.56 1074.38 1289.58"/><polygon class="cls-93" points="1074.38 1289.58 1133.01 1333.8 1132.94 1260.74 1074.38 1216.56 1074.38 1289.58"/><polygon class="cls-94" points="960.27 1430.06 1056.93 1430.06 834.57 1262.22 834.62 1335.18 960.27 1430.06"/><polygon class="cls-95" points="854.29 1222.21 1021.71 1348.55 1021.71 1331.3 854.25 1204.95 854.29 1222.21"/><polygon class="cls-96" points="900.59 1227.6 937.34 1255.32 937.34 1238.09 900.59 1210.32 900.59 1227.6"/><polygon class="cls-97" points="900.55 1193.09 937.3 1165.33 937.34 1182.56 900.59 1210.32 900.55 1193.09"/><polygon class="cls-98" points="900.55 1103.1 937.34 1075.31 937.3 1092.57 900.59 1120.33 900.55 1103.1"/><polygon class="cls-99" points="900.59 1137.56 937.3 1165.33 937.34 1148.1 900.59 1120.33 900.59 1137.56"/><polygon class="cls-100" points="974.15 1103.1 937.34 1075.31 937.3 1092.57 974.15 1120.33 974.15 1103.1"/><polygon class="cls-101" points="974.15 1137.54 937.3 1165.33 937.34 1148.1 974.15 1120.33 974.15 1137.54"/><polygon class="cls-102" points="1146.55 1354.15 1074.82 1300 1074.82 1317.23 1146.55 1371.33 1146.55 1354.15"/><polygon class="cls-103" points="1055.24 1314.78 1074.82 1300 1074.82 1317.23 1055.24 1332.06 1055.24 1314.78"/><polygon class="cls-104" points="1137.75 1055.7 1217.45 1115.88 1217.41 1042.84 1137.75 982.74 1137.75 1055.7"/><polygon class="cls-105" points="1263.34 1081.22 1217.45 1115.88 1217.41 1042.84 1263.28 1008.23 1263.34 1081.22"/><polygon class="cls-106" points="1263.34 1081.22 1321.87 1125.42 1321.87 1052.43 1263.28 1008.23 1263.34 1081.22"/><polygon class="cls-107" points="1426.46 1120.87 1426.39 1081.57 1442.59 1093.74 1442.59 1133.06 1426.46 1120.87"/><polygon class="cls-108" points="1342.06 1057.21 1342.09 1017.97 1358.25 1030.13 1358.25 1069.4 1342.06 1057.21"/><polygon class="cls-109" points="1374.4 1081.57 1426.39 1081.57 1410.27 1069.38 1358.25 1069.4 1374.4 1081.57"/><polygon class="cls-110" points="1394.12 1017.89 1342.09 1017.97 1358.25 1030.13 1410.27 1030.13 1394.12 1017.89"/><polygon class="cls-111" points="1426.46 1042.31 1426.39 1081.57 1410.27 1069.38 1410.27 1030.13 1426.46 1042.31"/><polygon class="cls-112" points="1064.45 1117.01 1138.29 1172.79 1138.29 1099.75 1064.45 1044.04 1064.45 1117.01"/></g></g></g><g class="cls-113"><g class="cls-114"><polygon class="cls-115" points="248.71 905.1 246.27 903.25 1208.88 176.71 1211.32 178.55 248.71 905.1"/><polygon class="cls-115" points="256.77 911.18 254.33 909.34 1216.94 182.79 1219.38 184.63 256.77 911.18"/><polygon class="cls-115" points="264.8 917.26 262.36 915.42 1224.97 188.85 1227.4 190.69 264.8 917.26"/><polygon class="cls-115" points="272.86 923.35 270.42 921.51 1233.03 194.94 1235.46 196.78 272.86 923.35"/><polygon class="cls-115" points="280.89 929.38 278.45 927.54 1241.06 201 1243.49 202.84 280.89 929.38"/><polygon class="cls-115" points="288.95 935.47 286.51 933.63 1249.12 207.08 1251.56 208.92 288.95 935.47"/><polygon class="cls-115" points="316.15 956.02 313.71 954.18 1276.32 227.61 1278.75 229.45 316.15 956.02"/><polygon class="cls-115" points="324.21 962.11 321.77 960.27 1284.38 233.69 1286.81 235.53 324.21 962.11"/><polygon class="cls-115" points="332.24 968.14 329.8 966.3 1292.4 239.75 1294.84 241.59 332.24 968.14"/><polygon class="cls-115" points="340.3 974.22 337.86 972.38 1300.46 245.84 1302.9 247.68 340.3 974.22"/><polygon class="cls-115" points="348.36 980.31 345.92 978.47 1308.53 251.92 1310.96 253.76 348.36 980.31"/><polygon class="cls-115" points="356.39 986.39 353.95 984.55 1316.55 257.98 1318.99 259.82 356.39 986.39"/><polygon class="cls-115" points="381.55 1005.36 379.12 1003.52 1341.72 276.98 1344.16 278.82 381.55 1005.36"/><polygon class="cls-115" points="389.61 1011.45 387.14 1009.61 1349.78 283.06 1352.22 284.9 389.61 1011.45"/><polygon class="cls-115" points="397.64 1017.53 395.2 1015.69 1357.81 289.12 1360.25 290.96 397.64 1017.53"/><polygon class="cls-115" points="405.7 1023.62 403.26 1021.78 1365.87 295.2 1368.31 297.05 405.7 1023.62"/><polygon class="cls-115" points="413.73 1029.65 411.29 1027.81 1373.89 301.26 1376.33 303.1 413.73 1029.65"/><polygon class="cls-115" points="421.79 1035.73 419.35 1033.89 1381.96 307.35 1384.4 309.19 421.79 1035.73"/></g><g class="cls-116"><polygon class="cls-115" points="57.95 728.39 55.51 726.54 1018.12 0 1020.56 1.84 57.95 728.39"/><polygon class="cls-115" points="66.01 734.47 63.58 732.63 1026.18 6.08 1028.62 7.92 66.01 734.47"/><polygon class="cls-115" points="74.04 740.55 71.6 738.72 1034.21 12.14 1036.65 13.98 74.04 740.55"/><polygon class="cls-115" points="82.1 746.64 79.67 744.8 1042.27 18.23 1044.71 20.07 82.1 746.64"/><polygon class="cls-115" points="90.13 752.67 87.69 750.83 1050.3 24.29 1052.73 26.13 90.13 752.67"/><polygon class="cls-115" points="98.19 758.76 95.75 756.92 1058.36 30.37 1060.8 32.21 98.19 758.76"/><polygon class="cls-115" points="125.39 779.31 122.95 777.47 1085.56 50.9 1087.99 52.74 125.39 779.31"/><polygon class="cls-115" points="133.45 785.4 131.01 783.56 1093.62 56.99 1096.06 58.83 133.45 785.4"/><polygon class="cls-115" points="141.48 791.43 139.04 789.59 1101.64 63.04 1104.08 64.89 141.48 791.43"/><polygon class="cls-115" points="149.54 797.52 147.1 795.67 1109.7 69.13 1112.14 70.97 149.54 797.52"/><polygon class="cls-115" points="157.6 803.6 155.16 801.76 1117.77 75.22 1120.2 77.06 157.6 803.6"/><polygon class="cls-115" points="165.63 809.68 163.19 807.84 1125.79 81.27 1128.23 83.11 165.63 809.68"/><polygon class="cls-115" points="190.79 828.65 188.36 826.81 1150.96 100.27 1153.4 102.11 190.79 828.65"/><polygon class="cls-115" points="198.85 834.74 196.38 832.9 1159.02 106.35 1161.46 108.19 198.85 834.74"/><polygon class="cls-115" points="206.88 840.82 204.45 838.98 1167.05 112.41 1169.49 114.25 206.88 840.82"/><polygon class="cls-115" points="214.94 846.91 212.51 845.07 1175.11 118.5 1177.55 120.34 214.94 846.91"/><polygon class="cls-115" points="222.97 852.94 220.53 851.1 1183.13 124.56 1185.57 126.39 222.97 852.94"/><polygon class="cls-115" points="231.03 859.03 228.59 857.19 1191.2 130.64 1193.64 132.48 231.03 859.03"/></g><g class="cls-117"><polygon class="cls-115" points="815.3 534.16 817.74 532.3 1780.34 1258.87 1777.9 1260.71 815.3 534.16"/><polygon class="cls-115" points="807.24 540.23 809.68 538.38 1772.28 1264.96 1769.84 1266.8 807.24 540.23"/><polygon class="cls-115" points="799.21 546.31 801.65 544.47 1764.25 1271.04 1761.82 1272.88 799.21 546.31"/><polygon class="cls-115" points="791.15 552.37 793.59 550.53 1756.19 1277.07 1753.76 1278.91 791.15 552.37"/><polygon class="cls-115" points="783.12 558.45 785.56 556.61 1748.16 1283.16 1745.73 1285 783.12 558.45"/><polygon class="cls-115" points="775.06 564.54 777.5 562.67 1740.1 1289.24 1737.67 1291.08 775.06 564.54"/><polygon class="cls-115" points="747.86 585.07 750.3 583.23 1712.9 1309.8 1710.47 1311.64 747.86 585.07"/><polygon class="cls-115" points="739.8 591.13 742.24 589.28 1704.85 1315.83 1702.41 1317.67 739.8 591.13"/><polygon class="cls-115" points="731.78 597.21 734.22 595.37 1696.82 1321.91 1694.38 1323.75 731.78 597.21"/><polygon class="cls-115" points="723.71 603.29 726.15 601.43 1688.76 1328 1686.32 1329.84 723.71 603.29"/><polygon class="cls-115" points="715.65 609.35 718.09 607.51 1680.69 1334.08 1678.26 1335.92 715.65 609.35"/><polygon class="cls-115" points="707.63 615.44 710.07 613.6 1672.67 1340.17 1670.23 1342.01 707.63 615.44"/><polygon class="cls-115" points="682.46 634.43 684.9 632.57 1647.5 1359.14 1645.06 1360.98 682.46 634.43"/><polygon class="cls-115" points="674.4 640.49 676.84 638.65 1639.44 1365.22 1637 1367.06 674.4 640.49"/><polygon class="cls-115" points="666.37 646.58 668.81 644.74 1631.41 1371.31 1628.97 1373.15 666.37 646.58"/><polygon class="cls-115" points="658.31 652.64 660.75 650.79 1623.35 1377.34 1620.91 1379.18 658.31 652.64"/><polygon class="cls-115" points="650.28 658.72 652.72 656.88 1615.33 1383.42 1612.89 1385.27 650.28 658.72"/><polygon class="cls-115" points="642.22 664.78 644.66 662.94 1607.26 1389.51 1604.82 1391.35 642.22 664.78"/></g><g class="cls-118"><polygon class="cls-115" points="589.86 675.98 592.3 674.08 1554.9 1400.65 1552.46 1402.55 589.86 675.98"/><polygon class="cls-115" points="581.79 682.01 584.24 680.17 1546.84 1406.74 1544.4 1408.58 581.79 682.01"/><polygon class="cls-115" points="573.77 688.1 576.21 686.25 1538.81 1412.83 1536.37 1414.67 573.77 688.1"/><polygon class="cls-115" points="565.71 694.18 568.15 692.34 1530.75 1418.91 1528.31 1420.75 565.71 694.18"/><polygon class="cls-115" points="557.68 700.26 560.12 698.42 1522.72 1424.99 1520.28 1426.83 557.68 700.26"/><polygon class="cls-115" points="549.62 706.35 552.06 704.46 1514.66 1431.03 1512.22 1432.92 549.62 706.35"/><polygon class="cls-115" points="522.42 726.85 524.86 725.01 1487.46 1451.58 1485.02 1453.42 522.42 726.85"/><polygon class="cls-115" points="514.36 732.94 516.8 731.1 1479.4 1457.67 1476.96 1459.51 514.36 732.94"/><polygon class="cls-115" points="506.33 739.02 508.77 737.18 1471.38 1463.75 1468.94 1465.59 506.33 739.02"/><polygon class="cls-115" points="498.27 745.11 500.71 743.22 1463.32 1469.79 1460.87 1471.68 498.27 745.11"/><polygon class="cls-115" points="490.21 751.14 492.65 749.3 1455.25 1475.87 1452.81 1477.71 490.21 751.14"/><polygon class="cls-115" points="482.18 757.22 484.62 755.38 1447.23 1481.95 1444.79 1483.79 482.18 757.22"/><polygon class="cls-115" points="457.02 776.25 459.46 774.35 1422.06 1500.92 1419.62 1502.82 457.02 776.25"/><polygon class="cls-115" points="448.96 782.28 451.4 780.44 1414 1507.01 1411.56 1508.85 448.96 782.28"/><polygon class="cls-115" points="440.93 788.36 443.37 786.52 1405.97 1513.09 1403.53 1514.93 440.93 788.36"/><polygon class="cls-115" points="432.87 794.45 435.31 792.61 1397.91 1519.18 1395.47 1521.02 432.87 794.45"/><polygon class="cls-115" points="424.84 800.53 427.28 798.69 1389.88 1525.26 1387.44 1527.1 424.84 800.53"/><polygon class="cls-115" points="416.78 806.57 419.22 804.73 1381.82 1531.3 1379.38 1533.19 416.78 806.57"/></g></g></g></g></svg>
